<?xml version="1.0" encoding="UTF-8"?>
<svg width="30" height="30" xmlns="http://www.w3.org/2000/svg" fill="currentColor"><g filter="url(#filter0_d_52_981)" transform="translate(-1.9, 0)"><path d="M12.9606 7.16286C13.3806 6.82342 13.3987 6.96589 13.5417 7.06423C13.6848 7.16253 15.8757 9.32692 15.8757 9.32692H15.5807C16.421 9.32692 17.2885 9.33571 18.1198 9.33571C18.4418 9.01358 20.2749 7.21608 20.4001 7.12673C20.5426 7.03723 20.5703 6.88605 20.9811 7.22536C21.3841 7.55831 21.16 7.85732 21.151 7.86891L19.6217 9.3445C21.7229 9.36243 23.3415 9.37087 23.3415 9.37087C23.3595 9.37488 25.4159 9.83802 25.4694 12.2058C25.4426 14.5843 25.4782 19.3679 25.4782 19.3679C25.4766 19.3986 25.3484 21.6951 23.3766 22.0593C22.5467 22.0331 22.2546 22.0582 22.2419 22.0593C22.2404 22.0807 22.1695 23.0338 21.3473 23.0515C20.5069 23.0604 20.382 22.3713 20.3551 22.1121C19.8455 22.1121 13.7204 22.1394 13.7204 22.1394C13.719 22.1504 13.6081 23.0426 12.7819 23.0427C11.9414 23.0427 11.896 22.2914 11.8425 22.1394C11.297 22.1394 10.5641 22.1218 10.5641 22.1218C10.5641 22.1218 8.72252 21.7369 8.48112 19.3406C8.50781 16.9524 8.4813 12.2377 8.48112 12.2058C8.48112 12.2058 8.31089 9.99698 10.5104 9.36208C11.1899 9.33533 12.6564 9.32692 14.3551 9.32692L12.7907 7.80641C12.7869 7.80154 12.5527 7.49987 12.9606 7.16286ZM11.03 11.1062C10.6634 11.1062 10.3678 11.4103 10.3678 11.7859V19.7879C10.3678 20.1634 10.6634 20.4675 11.03 20.4675H23.1003C23.4668 20.4675 23.7614 20.1633 23.7614 19.7879V11.7859C23.7614 11.4104 23.4668 11.1063 23.1003 11.1062H11.03ZM17.0866 16.8201C17.8825 18.5488 18.7641 17.2775 18.7663 17.283L19.2712 17.6091C19.2529 17.6381 18.3171 19.1054 17.0954 17.9773C16.0499 19.117 14.9528 17.617 14.9528 17.617L15.5094 17.2576C15.5094 17.2576 16.2554 18.6023 17.0866 16.8201ZM15.5094 14.7127L12.1423 15.364L11.8512 14.0867L15.2526 13.4353L15.5094 14.7127ZM22.4245 14.0867L22.1423 15.364L18.7663 14.7127L19.0319 13.4353L22.4245 14.0867Z" fill="currentColor"></path></g><defs><filter id="filter0_d_52_981" x="1.90735e-06" y="0.590427" width="33.9563" height="33.0587" filterUnits="userSpaceOnUse" color-interpolation-filters="sRGB"><feFlood flood-opacity="0" result="BackgroundImageFix"></feFlood><feColorMatrix in="SourceAlpha" type="matrix" values="0 0 0 0 0 0 0 0 0 0 0 0 0 0 0 0 0 0 127 0" result="hardAlpha"></feColorMatrix><feOffset dy="2.11952"></feOffset><feGaussianBlur stdDeviation="4.23903"></feGaussianBlur><feColorMatrix type="matrix" values="0 0 0 0 0.0941176 0 0 0 0 0.0901961 0 0 0 0 0.101961 0 0 0 0.25 0"></feColorMatrix><feBlend mode="normal" in2="BackgroundImageFix" result="effect1_dropShadow_52_981"></feBlend><feBlend mode="normal" in="SourceGraphic" in2="effect1_dropShadow_52_981" result="shape"></feBlend></filter></defs></svg>
