<?xml version="1.0" encoding="UTF-8"?>
<svg xmlns="http://www.w3.org/2000/svg" width="30" height="30" fill="none"><g filter="url(#a)"><path fill="#fff" d="M20.966 8.133s1.665-.65 1.526.927c-.046.649-.462 2.921-.786 5.38l-1.11 7.281s-.093 1.067-.926 1.252c-.832.186-2.08-.65-2.312-.834-.185-.14-3.469-2.226-4.626-3.247-.323-.278-.693-.835.047-1.484l4.857-4.637c.555-.557 1.11-1.856-1.203-.279l-6.476 4.406s-.74.463-2.127.046l-3.007-.927s-1.11-.696.786-1.391c4.626-2.182 10.315-4.406 15.357-6.494Z"></path></g><defs><filter id="a" width="33" height="30" x="-3" y="2.375" color-interpolation-filters="sRGB" filterUnits="userSpaceOnUse"><feFlood flood-opacity="0" result="BackgroundImageFix"></feFlood><feColorMatrix in="SourceAlpha" result="hardAlpha" values="0 0 0 0 0 0 0 0 0 0 0 0 0 0 0 0 0 0 127 0"></feColorMatrix><feOffset dy="1.875"></feOffset><feGaussianBlur stdDeviation="3.75"></feGaussianBlur><feColorMatrix values="0 0 0 0 0.0941176 0 0 0 0 0.0901961 0 0 0 0 0.101961 0 0 0 0.25 0"></feColorMatrix><feBlend in2="BackgroundImageFix" result="effect1_dropShadow_7290_102537"></feBlend><feBlend in="SourceGraphic" in2="effect1_dropShadow_7290_102537" result="shape"></feBlend></filter></defs></svg>
