<?xml version="1.0" encoding="UTF-8"?>
<svg xmlns="http://www.w3.org/2000/svg" width="30" height="30" fill="none"><path fill="currentColor" d="M21 10.866a1.5 1.5 0 0 1 1.5 1.5v1.504h-6a1 1 0 0 0-1 1v4a1 1 0 0 0 1 1h6v1.496a1.5 1.5 0 0 1-1.5 1.5H8a1.5 1.5 0 0 1-1.5-1.5v-9a1.5 1.5 0 0 1 1.5-1.5h13Zm1.5 4a1 1 0 0 1 1 1v2a1 1 0 0 1-1 1h-5a1 1 0 0 1-1-1v-2a1 1 0 0 1 1-1h5Zm-4 1a.5.5 0 0 0-.5.5v1a.5.5 0 0 0 1 0v-1a.5.5 0 0 0-.5-.5Zm-1.12-8.678a1 1 0 0 1 1.27.624l.702 2.058H9.52l7.86-2.682Z"></path></svg>
