<?xml version="1.0" encoding="UTF-8"?>
<svg xmlns="http://www.w3.org/2000/svg" width="33" height="32" fill="none"><g filter="url(#a)"><path fill="#fff" d="M15.965 7.55a.727.727 0 0 1 .464.196c.075.069.147.16.21.283.04.074.076.16.11.261a3.129 3.129 0 0 1 .096.344c.066.282.155.722.25 1.189l.14.691a.741.741 0 0 1 .096-.055l.03-.013a.871.871 0 0 1 .266-.057h.012l.055.002h.004a.642.642 0 0 1 .418.196.79.79 0 0 1 .059.067c.134.173.19.385.22.495.035.132.065.28.09.423.502-.43 1.152-.682 1.924-.694h.054l.111.005c.258.026.497.136.58.252.055.062.04.136-.016.174a.155.155 0 0 1-.068.026 4.216 4.216 0 0 0-.565.178c-.161.065-.281.132-.32.184a.75.75 0 0 1 .161-.024 4.27 4.27 0 0 1 .54-.014c.348.01.778.062 1.17.208.03.01.06.023.09.035a3.394 3.394 0 0 1 .36.17 3.647 3.647 0 0 1 .57.38c.722.586 1.259 1.47 1.27 2.5a3.083 3.083 0 0 1-.058.635c-.018.116-.097.163-.185.163a.295.295 0 0 1-.074-.01 2.08 2.08 0 0 0-.29-.027 4.002 4.002 0 0 0-.348.004c-.203.01-.39.037-.486.078a.237.237 0 0 0-.035.018l-.018-.006c.079.033.205.075.288.102.189.063.383.126.548.219l.004.002h.001l.002.001a2.252 2.252 0 0 1 .206.13c.402.282.743.69.959.985l.098.136c.152.22.288.45.382.644.116.242.221.53.118.812l-.02.055-.03.05a.794.794 0 0 1-.495.363 1.135 1.135 0 0 1-.229.036h-.004c-.072.005-.14.007-.204.01-.102.005-.192.01-.279.02a1.5 1.5 0 0 0-.459.123 2.803 2.803 0 0 0-.602.363 4.65 4.65 0 0 1-.325.273 6.475 6.475 0 0 1-.89.574c-.185.101-.375.198-.57.291-.879.418-1.849.756-2.702 1.053l-.06.02-.021.007-.196.062a5.13 5.13 0 0 1-.805.206 7.95 7.95 0 0 1-1.478.106 6.381 6.381 0 0 1-1.2-.144 4.645 4.645 0 0 1-1.037-.363l-.133-.069a6.311 6.311 0 0 1-1.059.092h-.098a10.583 10.583 0 0 1-.593.006c-.669-.017-1.22-.113-1.681-.264a4.174 4.174 0 0 1-.51-.207 3.455 3.455 0 0 1-1.397-1.253c-.555-.844-.512-1.79-.213-2.25a.144.144 0 0 1 .118-.064l.023.002c.053.008.101.045.115.106.011.1.034.22.071.348.043.148.105.307.19.452a1.48 1.48 0 0 0 .123.177c-.006-.087-.015-.186-.021-.293-.02-.322-.021-.72.09-1.115.018-.066.04-.131.064-.196.176-.457.525-.89 1.2-1.177a19.586 19.586 0 0 1-1.435-.769l-.01-.006-.04-.025-.038-.025c-.109-.068-.213-.133-.317-.215a1.805 1.805 0 0 1-.188-.172c-.108-.106-.32-.35-.516-1.89-.132-1.035-.13-1.75.007-2.125l.013-.037.019-.037a.796.796 0 0 1 .71-.454.818.818 0 0 1 .434.123c.207.12.356.302.446.41l.014.017.013.018c.185.26.428.62.685 1 .402.597.96 1.424 1.338 1.907a.707.707 0 0 1 .55-.259.765.765 0 0 1 .457.15c.187.127.36.333.552.593.048.065.097.134.148.206.038.054.091.128.11.151l.015.017.016.022.055.075a7.347 7.347 0 0 1 2.64-1.425c-.232-.409-.47-.926-.59-1.194-.462-1.043-.571-1.501-.595-1.714a.965.965 0 0 1-.005-.143c.003-.087.018-.22.043-.382a10.746 10.746 0 0 1 .325-1.445c.029-.093.058-.18.087-.262v-.005l.027-.067.045-.109c.076-.187.17-.327.284-.43l.038-.031h.002l.002-.003a.888.888 0 0 1 .107-.07l.014-.007.008-.003.013-.007.009-.003a.727.727 0 0 1 .298-.065l.034.002ZM8.74 11.42c-.145-.174-.402-.464-.542-.19-.218.602.166 3.161.366 3.358.135.144.275.222.47.346.532.323 1.4.761 2.188 1.123.71.028 1.732.32 2.377 1.617.07.148-.03.324-.185.31-.397-.03-.995.09-.938 1.052v-.002c0 .01.238 1.68 1.967 2.486.949.364 2.076.363 3.023.205.326-.051.56-.14.916-.249 1.449-.505 3.34-1.156 4.337-2.09.212-.178.502-.35.768-.467.472-.203.775-.18 1.15-.205.089-.007.189-.02.23-.09.068-.188-.713-1.516-1.476-1.94l-.008-.005c-.248-.14-.752-.235-.961-.392-.22-.204-.448-.464-.586-.614-.192-.215-.346-.407-.535-.601-2.01-2.09-6.135-1.458-8.186.781-.011.004-.022-.003-.031-.014-.131-.164-.312-.414-.467-.625-.142-.161-.695-1.074-.859-.845a.29.29 0 0 0-.03.073c-.09.334-.243.616-.58.323-.507-.458-1.79-2.479-2.408-3.345Zm6.401 4.338c.366-.241 1.05.141 1.529.858.478.716.573 1.497.214 1.738-.366.242-1.05-.142-1.529-.858-.478-.716-.574-1.492-.214-1.738Zm1.09-6.98c-.112-.482-.23-.643-.342-.587l-.002.001a.205.205 0 0 0-.02.012l-.007.007a.512.512 0 0 0-.12.198c-.225.508-.47 1.726-.48 2.052-.019.474 1.226 3.184 1.418 3.12.252-.081 1.167-.113 1.314-.113.145 0-.133-2.43-.347-2.45a.088.088 0 0 0-.06.021c-.098.07-.207.315-.313.559l-.017.04c-.14.25-.284.43-.363.183-.16-.497-.493-2.33-.66-3.043Z"></path></g><defs><filter id="a" width="33" height="29.904" x="0" y="1.923" color-interpolation-filters="sRGB" filterUnits="userSpaceOnUse"><feFlood flood-opacity="0" result="BackgroundImageFix"></feFlood><feColorMatrix in="SourceAlpha" result="hardAlpha" values="0 0 0 0 0 0 0 0 0 0 0 0 0 0 0 0 0 0 127 0"></feColorMatrix><feOffset dy="1.875"></feOffset><feGaussianBlur stdDeviation="3.75"></feGaussianBlur><feColorMatrix values="0 0 0 0 0.0941176 0 0 0 0 0.0901961 0 0 0 0 0.101961 0 0 0 0.25 0"></feColorMatrix><feBlend in2="BackgroundImageFix" result="effect1_dropShadow_6959_37845"></feBlend><feBlend in="SourceGraphic" in2="effect1_dropShadow_6959_37845" result="shape"></feBlend></filter></defs></svg>
